<svg width="443" height="415" viewBox="0 0 443 415" fill="none" xmlns="http://www.w3.org/2000/svg">
<path d="M108.78 94.9682H101.469C101.469 80.3327 89.6042 68.4684 74.9687 68.4684C60.3332 68.4684 48.4685 80.3327 48.4685 94.9682H43.1281C36.3951 94.9682 30.937 100.901 30.937 108.219C30.937 115.536 36.3954 121.468 43.1281 121.468H108.78C115.514 121.468 120.972 115.536 120.972 108.219C120.972 100.901 115.514 94.9682 108.78 94.9682Z" fill="url(#paint0_linear_9923_160198)"/>
<path d="M295.902 19.6274H290.66C290.66 9.13363 282.153 0.627686 271.66 0.627686C261.165 0.627686 252.659 9.13363 252.659 19.6274H248.829C244.002 19.6274 240.088 23.8816 240.088 29.1282C240.088 34.3747 244.002 38.6277 248.829 38.6277H295.902C300.73 38.6277 304.643 34.3747 304.643 29.1282C304.643 23.8816 300.73 19.6274 295.902 19.6274Z" fill="url(#paint1_linear_9923_160198)"/>
<path fill-rule="evenodd" clip-rule="evenodd" d="M211.5 296C272.88 296 328.152 301.007 366.788 309.004C404.575 309.255 435 320.574 435 334.5C435 345.537 415.89 354.936 389.149 358.486C382.767 360.374 375.583 362.154 367.691 363.808C367.897 364.862 368 365.926 368 367C368 391.301 315.17 411 250 411C191.368 411 142.724 395.055 133.554 374.159C55.3194 368.218 0 353.596 0 336.5C0 314.133 94.6918 296 211.5 296Z" fill="#E7EAF0"/>
<path d="M390.312 281.568C390.396 281.897 390.5 282.247 390.625 282.618L390.875 283.606C390.958 283.935 391 284.203 391 284.408C391 285.561 390.688 286.58 390.062 287.465C389.438 288.35 388.625 288.999 387.625 289.41C387.25 289.452 386.854 289.472 386.438 289.472C386.104 289.513 385.729 289.534 385.312 289.534H384.125L374.375 289.657V299.97C374.375 301.493 374.406 303.027 374.469 304.571C374.531 306.115 374.604 307.504 374.688 308.739C374.771 310.221 374.875 311.641 375 313H366L366.188 310.592C366.229 309.645 366.271 308.358 366.312 306.732C366.354 305.106 366.375 302.934 366.375 300.217V290.769C365.667 291.387 364.875 291.695 364 291.695C363.292 291.695 362.677 291.531 362.156 291.201C361.635 290.872 361.208 290.419 360.875 289.843L353.812 289.472C352.438 289.143 351.292 288.453 350.375 287.403C349.458 286.354 349 285.108 349 283.667C349 283.42 349.021 283.194 349.062 282.988C349.104 282.782 349.167 282.576 349.25 282.371L350.812 278.789C350.896 277.883 351.156 277.039 351.594 276.257C352.031 275.475 352.583 274.796 353.25 274.219L363.062 256.249H363.125C363.917 254.808 364.854 253.573 365.938 252.544C367.021 251.515 368.417 251 370.125 251C371.625 251 372.969 251.391 374.156 252.173C375.344 252.956 376.229 253.985 376.812 255.261L384.688 270.514C386.104 271.008 387.271 271.873 388.188 273.108C389.104 274.343 389.562 275.763 389.562 277.369C389.562 278.027 389.458 278.727 389.25 279.468L390.312 281.568Z" fill="url(#paint2_linear_9923_160198)"/>
<path d="M430.312 301.568C430.396 301.897 430.5 302.247 430.625 302.618L430.875 303.606C430.958 303.935 431 304.203 431 304.408C431 305.561 430.688 306.58 430.062 307.465C429.438 308.35 428.625 308.999 427.625 309.41C427.25 309.452 426.854 309.472 426.438 309.472C426.104 309.513 425.729 309.534 425.312 309.534H424.125L414.375 309.657V319.97C414.375 321.493 414.406 323.027 414.469 324.571C414.531 326.115 414.604 327.504 414.688 328.739C414.771 330.221 414.875 331.641 415 333H406L406.188 330.592C406.229 329.645 406.271 328.358 406.312 326.732C406.354 325.106 406.375 322.934 406.375 320.217V310.769C405.667 311.387 404.875 311.695 404 311.695C403.292 311.695 402.677 311.531 402.156 311.201C401.635 310.872 401.208 310.419 400.875 309.843L393.812 309.472C392.438 309.143 391.292 308.453 390.375 307.403C389.458 306.354 389 305.108 389 303.667C389 303.42 389.021 303.194 389.062 302.988C389.104 302.782 389.167 302.576 389.25 302.371L390.812 298.789C390.896 297.883 391.156 297.039 391.594 296.257C392.031 295.475 392.583 294.796 393.25 294.219L403.062 276.249H403.125C403.917 274.808 404.854 273.573 405.938 272.544C407.021 271.515 408.417 271 410.125 271C411.625 271 412.969 271.391 414.156 272.173C415.344 272.956 416.229 273.985 416.812 275.261L424.688 290.514C426.104 291.008 427.271 291.873 428.188 293.108C429.104 294.343 429.562 295.763 429.562 297.369C429.562 298.027 429.458 298.727 429.25 299.468L430.312 301.568Z" fill="url(#paint3_linear_9923_160198)"/>
<path d="M77.0342 294.387C77.1513 294.854 77.2976 295.351 77.4732 295.877L77.8244 297.279C77.9415 297.746 78 298.126 78 298.418C78 300.055 77.561 301.501 76.683 302.757C75.8051 304.013 74.6637 304.934 73.2589 305.518C72.7321 305.576 72.1761 305.606 71.5908 305.606C71.1225 305.664 70.5957 305.693 70.0104 305.693H68.3423L54.6458 305.869V320.506C54.6458 322.668 54.6897 324.845 54.7775 327.036C54.8653 329.227 54.9678 331.199 55.0848 332.952C55.2019 335.056 55.3482 337.072 55.5238 339H42.881L43.1443 335.582C43.2029 334.238 43.2614 332.412 43.3199 330.104C43.3785 327.796 43.4077 324.713 43.4077 320.857V307.446C42.4127 308.323 41.3006 308.761 40.0714 308.761C39.0764 308.761 38.213 308.527 37.4814 308.06C36.7498 307.592 36.1498 306.95 35.6815 306.132L25.7604 305.606C23.8289 305.138 22.2192 304.159 20.9315 302.669C19.6438 301.179 19 299.412 19 297.367C19 297.016 19.0293 296.695 19.0878 296.402C19.1463 296.11 19.2341 295.818 19.3512 295.526L21.5461 290.442C21.6632 289.157 22.029 287.959 22.6436 286.849C23.2582 285.738 24.0337 284.774 24.9702 283.956L38.7545 258.45H38.8423C39.9544 256.405 41.2713 254.652 42.7932 253.191C44.315 251.73 46.2758 251 48.6756 251C50.7827 251 52.6704 251.555 54.3385 252.665C56.0067 253.776 57.2505 255.236 58.0699 257.048L69.1324 278.697C71.1225 279.398 72.7614 280.626 74.0491 282.379C75.3368 284.132 75.9807 286.147 75.9807 288.426C75.9807 289.361 75.8343 290.355 75.5417 291.406L77.0342 294.387Z" fill="url(#paint4_linear_9923_160198)"/>
<path opacity="0.5" d="M110 317.042L302.189 415L443 335.112L262.229 279L110 317.042Z" fill="url(#paint5_linear_9923_160198)"/>
<path d="M107 173.051V305.209C107 310.321 111.145 314.466 116.259 314.466L219.864 319L227.194 314.466L243.942 247.458L220.718 196.76L254 163L116.191 163.788C111.106 163.833 107 167.967 107 173.051Z" fill="url(#paint6_linear_9923_160198)"/>
<path d="M107 179.075V309.721C107 314.846 111.128 319 116.221 319H219.411L237 248.173L212.051 195.524L237 169L116.153 169.79C111.089 169.835 107 173.978 107 179.075Z" fill="url(#paint7_linear_9923_160198)"/>
<path d="M229.99 278.189L236 253.4C209.902 270.34 196.611 278.829 196.127 278.867C185.739 269.792 172.018 256.609 154.965 239.318C152.004 236.311 146.85 236.216 143.76 239.113L107 290.155V308.95C107 313.998 110.105 319 117.099 319H219.944L229.99 278.189Z" fill="url(#paint8_linear_9923_160198)"/>
<path d="M305.23 177L359.04 190.811C363.844 192.036 366.824 196.8 365.798 201.62L329.652 335.705C328.463 341.292 322.488 344.457 317.148 342.337L239.174 321.132L278.323 248.487L268.122 197.58L305.23 177Z" fill="url(#paint9_linear_9923_160198)"/>
<path d="M297.637 180.635L351.447 194.446C356.252 195.671 359.231 200.435 358.206 205.255L323.478 334.052C322.289 339.639 316.313 342.804 310.974 340.684L233 319.479L270.731 252.122L260.53 201.215L297.637 180.635Z" fill="url(#paint10_linear_9923_160198)"/>
<path d="M326.461 323.383L288.34 250.361C286.351 247.094 282.118 246.031 278.824 247.965L270.731 252.122L233.084 319.501C277.897 331.973 302.938 338.796 308.207 339.97C316.111 341.731 321.909 340.508 323.095 334.89L326.461 323.383Z" fill="url(#paint11_linear_9923_160198)"/>
<path d="M313.207 244.569C322.537 244.569 330.1 237.012 330.1 227.69C330.1 218.367 322.537 210.81 313.207 210.81C303.877 210.81 296.314 218.367 296.314 227.69C296.314 237.012 303.877 244.569 313.207 244.569Z" fill="white"/>
<path d="M149.2 82.8549L157.922 113.815L170.31 107.773L181.516 130.751L174.062 98.118L161.469 104.26L149.2 82.8549Z" fill="url(#paint12_linear_9923_160198)"/>
<path d="M364.102 99.6503L324.598 124.886L342.487 142.071L311.542 165.888C343.496 150.978 359.162 143.075 358.541 142.181C357.92 141.286 351.73 135.621 339.971 125.184L364.102 99.6503Z" fill="url(#paint13_linear_9923_160198)"/>
<defs>
<linearGradient id="paint0_linear_9923_160198" x1="161.116" y1="103.931" x2="57.5142" y2="104.567" gradientUnits="userSpaceOnUse">
<stop stop-color="#E0E5EF" stop-opacity="0"/>
<stop offset="1" stop-color="#E0E5EF"/>
</linearGradient>
<linearGradient id="paint1_linear_9923_160198" x1="333.427" y1="26.0533" x2="259.144" y2="26.5092" gradientUnits="userSpaceOnUse">
<stop stop-color="#E0E5EF" stop-opacity="0"/>
<stop offset="1" stop-color="#E0E5EF"/>
</linearGradient>
<linearGradient id="paint2_linear_9923_160198" x1="388.231" y1="312.256" x2="366.046" y2="312.598" gradientUnits="userSpaceOnUse">
<stop stop-color="#E0E5EF" stop-opacity="0"/>
<stop offset="1" stop-color="#E0E5EF"/>
</linearGradient>
<linearGradient id="paint3_linear_9923_160198" x1="428.231" y1="332.256" x2="406.046" y2="332.598" gradientUnits="userSpaceOnUse">
<stop stop-color="#E0E5EF" stop-opacity="0"/>
<stop offset="1" stop-color="#E0E5EF"/>
</linearGradient>
<linearGradient id="paint4_linear_9923_160198" x1="73.5857" y1="337.944" x2="43.0584" y2="338.419" gradientUnits="userSpaceOnUse">
<stop stop-color="#E0E5EF" stop-opacity="0"/>
<stop offset="1" stop-color="#E0E5EF"/>
</linearGradient>
<linearGradient id="paint5_linear_9923_160198" x1="276.5" y1="342.551" x2="44.7991" y2="236.97" gradientUnits="userSpaceOnUse">
<stop stop-color="#E8EBF1" stop-opacity="0.23774"/>
<stop offset="1" stop-color="#A2ABB9"/>
</linearGradient>
<linearGradient id="paint6_linear_9923_160198" x1="348.331" y1="341.48" x2="16.6217" y2="146.939" gradientUnits="userSpaceOnUse">
<stop stop-color="#A2ABB9"/>
<stop offset="1" stop-color="#E7EAF0"/>
</linearGradient>
<linearGradient id="paint7_linear_9923_160198" x1="257.349" y1="342.277" x2="167.048" y2="164.048" gradientUnits="userSpaceOnUse">
<stop stop-color="#A2ABB9"/>
<stop offset="1" stop-color="#E7EAF0"/>
</linearGradient>
<linearGradient id="paint8_linear_9923_160198" x1="227.679" y1="305.428" x2="172.521" y2="243.587" gradientUnits="userSpaceOnUse">
<stop stop-color="#A2ABB9"/>
<stop offset="1" stop-color="#E7EAF0"/>
</linearGradient>
<linearGradient id="paint9_linear_9923_160198" x1="397.774" y1="366.921" x2="170.883" y2="202.8" gradientUnits="userSpaceOnUse">
<stop stop-color="#A2ABB9"/>
<stop offset="1" stop-color="#E7EAF0"/>
</linearGradient>
<linearGradient id="paint10_linear_9923_160198" x1="344.427" y1="378.633" x2="249.179" y2="197.393" gradientUnits="userSpaceOnUse">
<stop stop-color="#A2ABB9"/>
<stop offset="1" stop-color="#E7EAF0"/>
</linearGradient>
<linearGradient id="paint11_linear_9923_160198" x1="335.401" y1="367.416" x2="279.441" y2="247.155" gradientUnits="userSpaceOnUse">
<stop stop-color="#A2ABB9"/>
<stop offset="1" stop-color="#E7EAF0"/>
</linearGradient>
<linearGradient id="paint12_linear_9923_160198" x1="194.156" y1="163.62" x2="157.145" y2="88.4028" gradientUnits="userSpaceOnUse">
<stop stop-color="#A2ABB9"/>
<stop offset="1" stop-color="#E7EAF0"/>
</linearGradient>
<linearGradient id="paint13_linear_9923_160198" x1="299.346" y1="216.712" x2="354.01" y2="108.279" gradientUnits="userSpaceOnUse">
<stop stop-color="#A2ABB9"/>
<stop offset="1" stop-color="#E7EAF0"/>
</linearGradient>
</defs>
</svg>
