<svg width="443" height="415" viewBox="0 0 443 415" fill="none" xmlns="http://www.w3.org/2000/svg">
<path d="M108.78 94.3405H101.469C101.469 79.705 89.6042 67.8407 74.9687 67.8407C60.3332 67.8407 48.4685 79.705 48.4685 94.3405H43.1281C36.3951 94.3405 30.937 100.273 30.937 107.591C30.937 114.909 36.3954 120.841 43.1281 120.841H108.78C115.514 120.841 120.972 114.908 120.972 107.591C120.972 100.273 115.514 94.3405 108.78 94.3405Z" fill="url(#paint0_linear_235_1025)"/>
<path d="M295.902 18.9997H290.66C290.66 8.50594 282.153 0 271.66 0C261.165 0 252.659 8.50594 252.659 18.9997H248.829C244.002 18.9997 240.088 23.2539 240.088 28.5005C240.088 33.747 244.002 38 248.829 38H295.902C300.73 38 304.643 33.747 304.643 28.5005C304.643 23.2539 300.73 18.9997 295.902 18.9997Z" fill="url(#paint1_linear_235_1025)"/>
<path fill-rule="evenodd" clip-rule="evenodd" d="M211.5 295.372C272.88 295.372 328.152 300.379 366.788 308.376C404.575 308.628 435 319.946 435 333.872C435 344.909 415.89 354.308 389.149 357.858C382.767 359.746 375.583 361.526 367.691 363.18C367.897 364.234 368 365.299 368 366.372C368 390.673 315.17 410.372 250 410.372C191.368 410.372 142.724 394.427 133.554 373.531C55.3194 367.591 0 352.969 0 335.872C0 313.505 94.6918 295.372 211.5 295.372Z" fill="#242526"/>
<path d="M390.312 280.94C390.396 281.269 390.5 281.619 390.625 281.99L390.875 282.978C390.958 283.307 391 283.575 391 283.781C391 284.933 390.688 285.952 390.062 286.837C389.438 287.723 388.625 288.371 387.625 288.783C387.25 288.824 386.854 288.844 386.438 288.844C386.104 288.886 385.729 288.906 385.312 288.906H384.125L374.375 289.03V299.342C374.375 300.866 374.406 302.399 374.469 303.943C374.531 305.487 374.604 306.876 374.688 308.111C374.771 309.593 374.875 311.014 375 312.372H366L366.188 309.964C366.229 309.017 366.271 307.731 366.312 306.104C366.354 304.478 366.375 302.307 366.375 299.589V290.141C365.667 290.759 364.875 291.068 364 291.068C363.292 291.068 362.677 290.903 362.156 290.574C361.635 290.244 361.208 289.791 360.875 289.215L353.812 288.844C352.438 288.515 351.292 287.826 350.375 286.776C349.458 285.726 349 284.481 349 283.04C349 282.793 349.021 282.566 349.062 282.36C349.104 282.155 349.167 281.949 349.25 281.743L350.812 278.161C350.896 277.255 351.156 276.411 351.594 275.629C352.031 274.847 352.583 274.168 353.25 273.591L363.062 255.621H363.125C363.917 254.18 364.854 252.945 365.938 251.916C367.021 250.887 368.417 250.372 370.125 250.372C371.625 250.372 372.969 250.763 374.156 251.546C375.344 252.328 376.229 253.357 376.812 254.633L384.688 269.886C386.104 270.38 387.271 271.245 388.188 272.48C389.104 273.715 389.562 275.135 389.562 276.741C389.562 277.4 389.458 278.099 389.25 278.84L390.312 280.94Z" fill="url(#paint2_linear_235_1025)"/>
<path d="M430.312 300.94C430.396 301.269 430.5 301.619 430.625 301.99L430.875 302.978C430.958 303.307 431 303.575 431 303.781C431 304.933 430.688 305.952 430.062 306.837C429.438 307.723 428.625 308.371 427.625 308.783C427.25 308.824 426.854 308.844 426.438 308.844C426.104 308.886 425.729 308.906 425.312 308.906H424.125L414.375 309.03V319.342C414.375 320.866 414.406 322.399 414.469 323.943C414.531 325.487 414.604 326.876 414.688 328.111C414.771 329.593 414.875 331.014 415 332.372H406L406.188 329.964C406.229 329.017 406.271 327.731 406.312 326.104C406.354 324.478 406.375 322.307 406.375 319.589V310.141C405.667 310.759 404.875 311.068 404 311.068C403.292 311.068 402.677 310.903 402.156 310.574C401.635 310.244 401.208 309.791 400.875 309.215L393.812 308.844C392.438 308.515 391.292 307.826 390.375 306.776C389.458 305.726 389 304.481 389 303.04C389 302.793 389.021 302.566 389.062 302.36C389.104 302.155 389.167 301.949 389.25 301.743L390.812 298.161C390.896 297.255 391.156 296.411 391.594 295.629C392.031 294.847 392.583 294.168 393.25 293.591L403.062 275.621H403.125C403.917 274.18 404.854 272.945 405.938 271.916C407.021 270.887 408.417 270.372 410.125 270.372C411.625 270.372 412.969 270.763 414.156 271.546C415.344 272.328 416.229 273.357 416.812 274.633L424.688 289.886C426.104 290.38 427.271 291.245 428.188 292.48C429.104 293.715 429.562 295.135 429.562 296.741C429.562 297.4 429.458 298.099 429.25 298.84L430.312 300.94Z" fill="url(#paint3_linear_235_1025)"/>
<path d="M77.0342 293.759C77.1513 294.226 77.2976 294.723 77.4732 295.249L77.8244 296.651C77.9415 297.119 78 297.498 78 297.791C78 299.427 77.561 300.873 76.683 302.129C75.8051 303.386 74.6637 304.306 73.2589 304.89C72.7321 304.949 72.1761 304.978 71.5908 304.978C71.1225 305.036 70.5957 305.066 70.0104 305.066H68.3423L54.6458 305.241V319.878C54.6458 322.04 54.6897 324.217 54.7775 326.408C54.8653 328.599 54.9678 330.572 55.0848 332.325C55.2019 334.428 55.3482 336.444 55.5238 338.372H42.881L43.1443 334.954C43.2029 333.61 43.2614 331.784 43.3199 329.476C43.3785 327.168 43.4077 324.085 43.4077 320.229V306.819C42.4127 307.695 41.3006 308.133 40.0714 308.133C39.0764 308.133 38.213 307.9 37.4814 307.432C36.7498 306.965 36.1498 306.322 35.6815 305.504L25.7604 304.978C23.8289 304.51 22.2192 303.532 20.9315 302.042C19.6438 300.552 19 298.784 19 296.739C19 296.388 19.0293 296.067 19.0878 295.775C19.1463 295.483 19.2341 295.19 19.3512 294.898L21.5461 289.815C21.6632 288.529 22.029 287.331 22.6436 286.221C23.2582 285.111 24.0337 284.147 24.9702 283.328L38.7545 257.823H38.8423C39.9544 255.777 41.2713 254.024 42.7932 252.564C44.315 251.103 46.2758 250.372 48.6756 250.372C50.7827 250.372 52.6704 250.927 54.3385 252.038C56.0067 253.148 57.2505 254.609 58.0699 256.42L69.1324 278.07C71.1225 278.771 72.7614 279.998 74.0491 281.751C75.3368 283.504 75.9807 285.52 75.9807 287.799C75.9807 288.734 75.8343 289.727 75.5417 290.779L77.0342 293.759Z" fill="url(#paint4_linear_235_1025)"/>
<path opacity="0.5" d="M110 316.414L302.189 414.372L443 334.484L262.229 278.372L110 316.414Z" fill="url(#paint5_linear_235_1025)"/>
<path d="M107 172.423V304.581C107 309.694 111.145 313.838 116.259 313.838L219.864 318.372L227.194 313.838L243.942 246.831L220.718 196.133L254 162.372L116.191 163.161C111.106 163.206 107 167.339 107 172.423Z" fill="url(#paint6_linear_235_1025)"/>
<path d="M107 178.448V309.093C107 314.218 111.128 318.372 116.221 318.372H219.411L237 247.546L212.051 194.897L237 168.372L116.153 169.163C111.089 169.208 107 173.351 107 178.448Z" fill="url(#paint7_linear_235_1025)"/>
<path d="M229.99 277.561L236 252.772C209.902 269.712 196.611 278.201 196.127 278.239C185.739 269.164 172.018 255.981 154.965 238.69C152.004 235.683 146.85 235.589 143.76 238.485L107 289.527V308.322C107 313.37 110.105 318.372 117.099 318.372H219.944L229.99 277.561Z" fill="url(#paint8_linear_235_1025)"/>
<path d="M305.23 176.372L359.04 190.184C363.844 191.408 366.824 196.172 365.798 200.993L329.652 335.078C328.463 340.664 322.488 343.829 317.148 341.71L239.174 320.504L278.323 247.859L268.122 196.953L305.23 176.372Z" fill="url(#paint9_linear_235_1025)"/>
<path d="M297.637 180.007L351.447 193.819C356.252 195.043 359.231 199.807 358.206 204.628L323.478 333.425C322.289 339.011 316.313 342.176 310.974 340.057L233 318.851L270.731 251.494L260.53 200.588L297.637 180.007Z" fill="url(#paint10_linear_235_1025)"/>
<path d="M326.461 322.756L288.34 249.733C286.351 246.466 282.118 245.403 278.824 247.338L270.731 251.494L233.084 318.873C277.897 331.345 302.938 338.168 308.207 339.342C316.111 341.103 321.909 339.88 323.095 334.262L326.461 322.756Z" fill="url(#paint11_linear_235_1025)"/>
<path d="M313.207 243.942C322.537 243.942 330.1 236.384 330.1 227.062C330.1 217.739 322.537 210.182 313.207 210.182C303.877 210.182 296.314 217.739 296.314 227.062C296.314 236.384 303.877 243.942 313.207 243.942Z" fill="black" fill-opacity="0.25"/>
<path d="M149.2 82.2272L157.922 113.188L170.31 107.146L181.516 130.123L174.062 97.4903L161.469 103.632L149.2 82.2272Z" fill="url(#paint12_linear_235_1025)"/>
<path d="M364.102 99.0226L324.598 124.258L342.487 141.443L311.542 165.26C343.496 150.35 359.162 142.448 358.541 141.553C357.92 140.658 351.73 134.993 339.971 124.557L364.102 99.0226Z" fill="url(#paint13_linear_235_1025)"/>
<defs>
<linearGradient id="paint0_linear_235_1025" x1="161.116" y1="103.303" x2="57.5142" y2="103.939" gradientUnits="userSpaceOnUse">
<stop stop-color="#E0E5EF" stop-opacity="0"/>
<stop offset="1" stop-color="#242526"/>
</linearGradient>
<linearGradient id="paint1_linear_235_1025" x1="333.427" y1="25.4256" x2="259.144" y2="25.8816" gradientUnits="userSpaceOnUse">
<stop stop-color="#E0E5EF" stop-opacity="0"/>
<stop offset="1" stop-color="#242526"/>
</linearGradient>
<linearGradient id="paint2_linear_235_1025" x1="388.231" y1="311.628" x2="366.046" y2="311.97" gradientUnits="userSpaceOnUse">
<stop stop-color="#E0E5EF" stop-opacity="0"/>
<stop offset="1" stop-color="#242526"/>
</linearGradient>
<linearGradient id="paint3_linear_235_1025" x1="428.231" y1="331.628" x2="406.046" y2="331.97" gradientUnits="userSpaceOnUse">
<stop stop-color="#E0E5EF" stop-opacity="0"/>
<stop offset="1" stop-color="#242526"/>
</linearGradient>
<linearGradient id="paint4_linear_235_1025" x1="73.5857" y1="337.316" x2="43.0584" y2="337.791" gradientUnits="userSpaceOnUse">
<stop stop-color="#E0E5EF" stop-opacity="0"/>
<stop offset="1" stop-color="#242526"/>
</linearGradient>
<linearGradient id="paint5_linear_235_1025" x1="276.5" y1="341.923" x2="44.7991" y2="236.342" gradientUnits="userSpaceOnUse">
<stop stop-color="#E8EBF1" stop-opacity="0.23774"/>
<stop offset="1" stop-color="#242526"/>
</linearGradient>
<linearGradient id="paint6_linear_235_1025" x1="348.331" y1="340.853" x2="16.6217" y2="146.311" gradientUnits="userSpaceOnUse">
<stop stop-color="#242526"/>
<stop offset="1" stop-color="#E7EAF0"/>
</linearGradient>
<linearGradient id="paint7_linear_235_1025" x1="257.349" y1="341.649" x2="167.048" y2="163.421" gradientUnits="userSpaceOnUse">
<stop stop-color="#242526"/>
<stop offset="1" stop-color="#E7EAF0"/>
</linearGradient>
<linearGradient id="paint8_linear_235_1025" x1="227.679" y1="304.8" x2="172.521" y2="242.96" gradientUnits="userSpaceOnUse">
<stop stop-color="#242526"/>
<stop offset="1" stop-color="#E7EAF0"/>
</linearGradient>
<linearGradient id="paint9_linear_235_1025" x1="397.774" y1="366.294" x2="170.883" y2="202.172" gradientUnits="userSpaceOnUse">
<stop stop-color="#242526"/>
<stop offset="1" stop-color="#E7EAF0"/>
</linearGradient>
<linearGradient id="paint10_linear_235_1025" x1="344.427" y1="378.006" x2="249.179" y2="196.766" gradientUnits="userSpaceOnUse">
<stop stop-color="#242526"/>
<stop offset="1" stop-color="#E7EAF0"/>
</linearGradient>
<linearGradient id="paint11_linear_235_1025" x1="335.401" y1="366.788" x2="279.441" y2="246.527" gradientUnits="userSpaceOnUse">
<stop stop-color="#242526"/>
<stop offset="1" stop-color="#E7EAF0"/>
</linearGradient>
<linearGradient id="paint12_linear_235_1025" x1="194.156" y1="162.992" x2="157.145" y2="87.7752" gradientUnits="userSpaceOnUse">
<stop stop-color="#242526"/>
<stop offset="1" stop-color="#E7EAF0"/>
</linearGradient>
<linearGradient id="paint13_linear_235_1025" x1="299.346" y1="216.084" x2="354.01" y2="107.651" gradientUnits="userSpaceOnUse">
<stop stop-color="#242526"/>
<stop offset="1" stop-color="#E7EAF0"/>
</linearGradient>
</defs>
</svg>
